  0
SECTION
  2
HEADER
  9
$ACADVER
  1
AC1014
  9
$HANDSEED
  5
FFFF
  9
$INSUNITS
 70
     4
  9
$MEASUREMENT
 70
     1
  0
ENDSEC
  0
SECTION
  2
TABLES
  0
TABLE
  2
VPORT
  5
8
330
0
100
AcDbSymbolTable
 70
     4
  0
VPORT
  5
2E
330
8
100
AcDbSymbolTableRecord
100
AcDbViewportTableRecord
  2
*ACTIVE
 70
     0
 10
0.0
 20
0.0
 11
1.0
 21
1.0
 12
210.0
 22
148.5
 13
0.0
 23
0.0
 14
10.0
 24
10.0
 15
10.0
 25
10.0
 16
0.0
 26
0.0
 36
1.0
 17
0.0
 27
0.0
 37
0.0
 40
341.0
 41
1.24
 42
50.0
 43
0.0
 44
0.0
 50
0.0
 51
0.0
 71
     0
 72
   100
 73
     1
 74
     3
 75
     0
 76
     0
 77
     0
 78
     0
  0
ENDTAB
  0
TABLE
  2
LTYPE
  5
5
330
0
100
AcDbSymbolTable
 70
     1
  0
LTYPE
  5
14
330
5
100
AcDbSymbolTableRecord
100
AcDbLinetypeTableRecord
  2
BYBLOCK
 70
     0
  3

 72
    65
 73
     0
 40
0.0
  0
LTYPE
  5
15
330
5
100
AcDbSymbolTableRecord
100
AcDbLinetypeTableRecord
  2
BYLAYER
 70
     0
  3

 72
    65
 73
     0
 40
0.0
  0
LTYPE
  5
16
330
5
100
AcDbSymbolTableRecord
100
AcDbLinetypeTableRecord
  2
CONTINUOUS
 70
     0
  3
Solid line
 72
    65
 73
     0
 40
0.0
  0
ENDTAB
  0
TABLE
  2
LAYER
  5
2
100
AcDbSymbolTable
 70
2
  0
LAYER
  5
50
100
AcDbSymbolTableRecord
100
AcDbLayerTableRecord
  2
0
 70
0
  6
CONTINUOUS
  0
LAYER
  5
51
100
AcDbSymbolTableRecord
100
AcDbLayerTableRecord
  2
Layer_1
 70
0
  6
CONTINUOUS
  0
ENDTAB
  0
TABLE
  2
STYLE
  5
3
330
0
100
AcDbSymbolTable
 70
     1
  0
STYLE
  5
11
330
3
100
AcDbSymbolTableRecord
100
AcDbTextStyleTableRecord
  2
STANDARD
 70
     0
 40
0.0
 41
1.0
 50
0.0
 71
     0
 42
2.5
  3
txt
  4

  0
ENDTAB
  0
TABLE
  2
VIEW
  5
6
330
0
100
AcDbSymbolTable
 70
     0
  0
ENDTAB
  0
TABLE
  2
UCS
  5
7
330
0
100
AcDbSymbolTable
 70
     0
  0
ENDTAB
  0
TABLE
  2
APPID
  5
9
330
0
100
AcDbSymbolTable
 70
     2
  0
APPID
  5
12
330
9
100
AcDbSymbolTableRecord
100
AcDbRegAppTableRecord
  2
ACAD
 70
     0
  0
ENDTAB
  0
TABLE
  2
DIMSTYLE
  5
A
330
0
100
AcDbSymbolTable
 70
     1
  0
DIMSTYLE
105
27
330
A
100
AcDbSymbolTableRecord
100
AcDbDimStyleTableRecord
  2
ISO-25
 70
     0
  3

  4

  5

  6

  7

 40
1.0
 41
2.5
 42
0.625
 43
3.75
 44
1.25
 45
0.0
 46
0.0
 47
0.0
 48
0.0
140
2.5
141
2.5
142
0.0
143
0.03937007874016
144
1.0
145
0.0
146
1.0
147
0.625
 71
     0
 72
     0
 73
     0
 74
     0
 75
     0
 76
     0
 77
     1
 78
     8
170
     0
171
     3
172
     1
173
     0
174
     0
175
     0
176
     0
177
     0
178
     0
270
     2
271
     2
272
     2
273
     2
274
     3
340
11
275
     0
280
     0
281
     0
282
     0
283
     0
284
     8
285
     0
286
     0
287
     3
288
     0
  0
ENDTAB
  0
TABLE
  2
BLOCK_RECORD
  5
1
330
0
100
AcDbSymbolTable
 70
     1
  0
BLOCK_RECORD
  5
1F
330
1
100
AcDbSymbolTableRecord
100
AcDbBlockTableRecord
  2
*MODEL_SPACE
  0
BLOCK_RECORD
  5
1B
330
1
100
AcDbSymbolTableRecord
100
AcDbBlockTableRecord
  2
*PAPER_SPACE
  0
ENDTAB
  0
ENDSEC
  0
SECTION
  2
BLOCKS
  0
BLOCK
  5
20
330
1F
100
AcDbEntity
  8
0
100
AcDbBlockBegin
  2
*MODEL_SPACE
 70
     0
 10
0.0
 20
0.0
 30
0.0
  3
*MODEL_SPACE
  1

  0
ENDBLK
  5
21
330
1F
100
AcDbEntity
  8
0
100
AcDbBlockEnd
  0
BLOCK
  5
1C
330
1B
100
AcDbEntity
 67
     1
  8
0
100
AcDbBlockBegin
  2
*PAPER_SPACE
  1

  0
ENDBLK
  5
1D
330
1B
100
AcDbEntity
 67
     1
  8
0
100
AcDbBlockEnd
  0
ENDSEC
  0
SECTION
  2
ENTITIES
  0
SPLINE
  5
100
100
AcDbEntity
  8
Layer_1
 62
7
100
AcDbSpline
 70
8
 71
3
 72
8
 73
4
 74
0
 40
0
 40
0
 40
0
 40
0
 40
1
 40
1
 40
1
 40
1
 10
17.963550
 20
99.999690
 30
0.0
 10
17.594250
 20
99.999690
 30
0.0
 10
17.297440
 20
99.702370
 30
0.0
 10
17.297440
 20
99.333060
 30
0.0
  0
SPLINE
  5
101
100
AcDbEntity
  8
Layer_1
 62
7
100
AcDbSpline
 70
8
 71
3
 72
8
 73
4
 74
0
 40
0
 40
0
 40
0
 40
0
 40
1
 40
1
 40
1
 40
1
 10
17.297440
 20
95.666100
 30
0.0
 10
17.297440
 20
95.296800
 30
0.0
 10
17.594250
 20
94.999480
 30
0.0
 10
17.963550
 20
94.999480
 30
0.0
  0
LWPOLYLINE
  5
102
100
AcDbEntity
  8
Layer_1
 62
7
100
AcDbPolyline
 90
2
 70
0
 10
17.297440
 20
99.333060
 30
0.0
 10
17.297440
 20
95.666100
 30
0.0
  0
SPLINE
  5
103
100
AcDbEntity
  8
Layer_1
 62
7
100
AcDbSpline
 70
8
 71
3
 72
8
 73
4
 74
0
 40
0
 40
0
 40
0
 40
0
 40
1
 40
1
 40
1
 40
1
 10
1.809500
 20
94.999480
 30
0.0
 10
0.807030
 20
94.999480
 30
0.0
 10
-0.000210
 20
94.192760
 30
0.0
 10
-0.000210
 20
93.190290
 30
0.0
  0
LWPOLYLINE
  5
104
100
AcDbEntity
  8
Layer_1
 62
7
100
AcDbPolyline
 90
2
 70
0
 10
17.963550
 20
94.999480
 30
0.0
 10
1.809500
 20
94.999480
 30
0.0
  0
SPLINE
  5
105
100
AcDbEntity
  8
Layer_1
 62
7
100
AcDbSpline
 70
8
 71
3
 72
8
 73
4
 74
0
 40
0
 40
0
 40
0
 40
0
 40
1
 40
1
 40
1
 40
1
 10
-0.000210
 20
54.899080
 30
0.0
 10
-0.000210
 20
53.896610
 30
0.0
 10
0.807030
 20
53.089890
 30
0.0
 10
1.809500
 20
53.089890
 30
0.0
  0
LWPOLYLINE
  5
106
100
AcDbEntity
  8
Layer_1
 62
7
100
AcDbPolyline
 90
7
 70
0
 10
-0.000210
 20
93.190290
 30
0.0
 10
-0.000210
 20
90.953730
 30
0.0
 10
1.499960
 20
90.203910
 30
0.0
 10
2.999610
 20
89.453560
 30
0.0
 10
1.499960
 20
88.703740
 30
0.0
 10
-0.000210
 20
87.953910
 30
0.0
 10
-0.000210
 20
54.899080
 30
0.0
  0
SPLINE
  5
107
100
AcDbEntity
  8
Layer_1
 62
7
100
AcDbSpline
 70
8
 71
3
 72
8
 73
4
 74
0
 40
0
 40
0
 40
0
 40
0
 40
1
 40
1
 40
1
 40
1
 10
17.963550
 20
53.089890
 30
0.0
 10
17.594250
 20
53.089890
 30
0.0
 10
17.297440
 20
52.792570
 30
0.0
 10
17.297440
 20
52.423270
 30
0.0
  0
LWPOLYLINE
  5
108
100
AcDbEntity
  8
Layer_1
 62
7
100
AcDbPolyline
 90
2
 70
0
 10
1.809500
 20
53.089890
 30
0.0
 10
17.963550
 20
53.089890
 30
0.0
  0
SPLINE
  5
109
100
AcDbEntity
  8
Layer_1
 62
7
100
AcDbSpline
 70
8
 71
3
 72
8
 73
4
 74
0
 40
0
 40
0
 40
0
 40
0
 40
1
 40
1
 40
1
 40
1
 10
17.297440
 20
48.756310
 30
0.0
 10
17.297440
 20
48.387000
 30
0.0
 10
17.594250
 20
48.089680
 30
0.0
 10
17.963550
 20
48.089680
 30
0.0
  0
LWPOLYLINE
  5
10a
100
AcDbEntity
  8
Layer_1
 62
7
100
AcDbPolyline
 90
2
 70
0
 10
17.297440
 20
52.423270
 30
0.0
 10
17.297440
 20
48.756310
 30
0.0
  0
SPLINE
  5
10b
100
AcDbEntity
  8
Layer_1
 62
7
100
AcDbSpline
 70
8
 71
3
 72
8
 73
4
 74
0
 40
0
 40
0
 40
0
 40
0
 40
1
 40
1
 40
1
 40
1
 10
466.210610
 20
48.089680
 30
0.0
 10
466.579910
 20
48.089680
 30
0.0
 10
466.877240
 20
48.387000
 30
0.0
 10
466.877240
 20
48.756310
 30
0.0
  0
LWPOLYLINE
  5
10c
100
AcDbEntity
  8
Layer_1
 62
7
100
AcDbPolyline
 90
2
 70
0
 10
17.963550
 20
48.089680
 30
0.0
 10
466.210610
 20
48.089680
 30
0.0
  0
SPLINE
  5
10d
100
AcDbEntity
  8
Layer_1
 62
7
100
AcDbSpline
 70
8
 71
3
 72
8
 73
4
 74
0
 40
0
 40
0
 40
0
 40
0
 40
1
 40
1
 40
1
 40
1
 10
466.877240
 20
52.423270
 30
0.0
 10
466.877240
 20
52.792570
 30
0.0
 10
466.579910
 20
53.089890
 30
0.0
 10
466.210610
 20
53.089890
 30
0.0
  0
LWPOLYLINE
  5
10e
100
AcDbEntity
  8
Layer_1
 62
7
100
AcDbPolyline
 90
2
 70
0
 10
466.877240
 20
48.756310
 30
0.0
 10
466.877240
 20
52.423270
 30
0.0
  0
SPLINE
  5
10f
100
AcDbEntity
  8
Layer_1
 62
7
100
AcDbSpline
 70
8
 71
3
 72
8
 73
4
 74
0
 40
0
 40
0
 40
0
 40
0
 40
1
 40
1
 40
1
 40
1
 10
482.365180
 20
53.089890
 30
0.0
 10
483.367650
 20
53.089890
 30
0.0
 10
484.174370
 20
53.896610
 30
0.0
 10
484.174370
 20
54.899080
 30
0.0
  0
LWPOLYLINE
  5
110
100
AcDbEntity
  8
Layer_1
 62
7
100
AcDbPolyline
 90
2
 70
0
 10
466.210610
 20
53.089890
 30
0.0
 10
482.365180
 20
53.089890
 30
0.0
  0
SPLINE
  5
111
100
AcDbEntity
  8
Layer_1
 62
7
100
AcDbSpline
 70
8
 71
3
 72
8
 73
4
 74
0
 40
0
 40
0
 40
0
 40
0
 40
1
 40
1
 40
1
 40
1
 10
484.174370
 20
93.190290
 30
0.0
 10
484.174370
 20
94.192760
 30
0.0
 10
483.367650
 20
94.999480
 30
0.0
 10
482.365180
 20
94.999480
 30
0.0
  0
LWPOLYLINE
  5
112
100
AcDbEntity
  8
Layer_1
 62
7
100
AcDbPolyline
 90
7
 70
0
 10
484.174370
 20
54.899080
 30
0.0
 10
484.174370
 20
87.951850
 30
0.0
 10
482.674200
 20
88.701670
 30
0.0
 10
481.174550
 20
89.452010
 30
0.0
 10
482.674200
 20
90.201840
 30
0.0
 10
484.174370
 20
90.951660
 30
0.0
 10
484.174370
 20
93.190290
 30
0.0
  0
SPLINE
  5
113
100
AcDbEntity
  8
Layer_1
 62
7
100
AcDbSpline
 70
8
 71
3
 72
8
 73
4
 74
0
 40
0
 40
0
 40
0
 40
0
 40
1
 40
1
 40
1
 40
1
 10
466.210610
 20
94.999480
 30
0.0
 10
466.579910
 20
94.999480
 30
0.0
 10
466.877240
 20
95.296800
 30
0.0
 10
466.877240
 20
95.666100
 30
0.0
  0
LWPOLYLINE
  5
114
100
AcDbEntity
  8
Layer_1
 62
7
100
AcDbPolyline
 90
2
 70
0
 10
482.365180
 20
94.999480
 30
0.0
 10
466.210610
 20
94.999480
 30
0.0
  0
SPLINE
  5
115
100
AcDbEntity
  8
Layer_1
 62
7
100
AcDbSpline
 70
8
 71
3
 72
8
 73
4
 74
0
 40
0
 40
0
 40
0
 40
0
 40
1
 40
1
 40
1
 40
1
 10
466.877240
 20
99.333060
 30
0.0
 10
466.877240
 20
99.702370
 30
0.0
 10
466.579910
 20
99.999690
 30
0.0
 10
466.210610
 20
99.999690
 30
0.0
  0
LWPOLYLINE
  5
116
100
AcDbEntity
  8
Layer_1
 62
7
100
AcDbPolyline
 90
2
 70
0
 10
466.877240
 20
95.666100
 30
0.0
 10
466.877240
 20
99.333060
 30
0.0
  0
SPLINE
  5
117
100
AcDbEntity
  8
Layer_1
 62
7
100
AcDbSpline
 70
8
 71
3
 72
8
 73
4
 74
0
 40
0
 40
0
 40
0
 40
0
 40
1
 40
1
 40
1
 40
1
 10
9.401800
 20
91.953150
 30
0.0
 10
10.064748
 20
91.953202
 30
0.0
 10
10.700559
 20
91.689870
 30
0.0
 10
11.169334
 20
91.221094
 30
0.0
  0
SPLINE
  5
118
100
AcDbEntity
  8
Layer_1
 62
7
100
AcDbSpline
 70
8
 71
3
 72
8
 73
4
 74
0
 40
0
 40
0
 40
0
 40
0
 40
1
 40
1
 40
1
 40
1
 10
11.169334
 20
91.221094
 30
0.0
 10
11.638110
 20
90.752319
 30
0.0
 10
11.901442
 20
90.116508
 30
0.0
 10
11.901390
 20
89.453560
 30
0.0
  0
SPLINE
  5
119
100
AcDbEntity
  8
Layer_1
 62
7
100
AcDbSpline
 70
8
 71
3
 72
8
 73
4
 74
0
 40
0
 40
0
 40
0
 40
0
 40
1
 40
1
 40
1
 40
1
 10
11.901390
 20
89.453560
 30
0.0
 10
11.901211
 20
88.073233
 30
0.0
 10
10.782127
 20
86.954382
 30
0.0
 10
9.401800
 20
86.954490
 30
0.0
  0
SPLINE
  5
11a
100
AcDbEntity
  8
Layer_1
 62
7
100
AcDbSpline
 70
8
 71
3
 72
8
 73
4
 74
0
 40
0
 40
0
 40
0
 40
0
 40
1
 40
1
 40
1
 40
1
 10
9.401800
 20
86.954490
 30
0.0
 10
8.021473
 20
86.954382
 30
0.0
 10
6.902389
 20
88.073233
 30
0.0
 10
6.902210
 20
89.453560
 30
0.0
  0
SPLINE
  5
11b
100
AcDbEntity
  8
Layer_1
 62
7
100
AcDbSpline
 70
8
 71
3
 72
8
 73
4
 74
0
 40
0
 40
0
 40
0
 40
0
 40
1
 40
1
 40
1
 40
1
 10
6.902210
 20
89.453560
 30
0.0
 10
6.902158
 20
90.116508
 30
0.0
 10
7.165490
 20
90.752319
 30
0.0
 10
7.634266
 20
91.221094
 30
0.0
  0
SPLINE
  5
11c
100
AcDbEntity
  8
Layer_1
 62
7
100
AcDbSpline
 70
8
 71
3
 72
8
 73
4
 74
0
 40
0
 40
0
 40
0
 40
0
 40
1
 40
1
 40
1
 40
1
 10
7.634266
 20
91.221094
 30
0.0
 10
8.103041
 20
91.689870
 30
0.0
 10
8.738852
 20
91.953202
 30
0.0
 10
9.401800
 20
91.953150
 30
0.0
  0
LWPOLYLINE
  5
11d
100
AcDbEntity
  8
Layer_1
 62
7
100
AcDbPolyline
 90
2
 70
0
 10
466.210610
 20
99.999690
 30
0.0
 10
17.963550
 20
99.999690
 30
0.0
  0
SPLINE
  5
11e
100
AcDbEntity
  8
Layer_1
 62
7
100
AcDbSpline
 70
8
 71
3
 72
8
 73
4
 74
0
 40
0
 40
0
 40
0
 40
0
 40
1
 40
1
 40
1
 40
1
 10
474.769780
 20
91.951150
 30
0.0
 10
476.150371
 20
91.951205
 30
0.0
 10
477.269654
 20
90.832151
 30
0.0
 10
477.269880
 20
89.451560
 30
0.0
  0
SPLINE
  5
11f
100
AcDbEntity
  8
Layer_1
 62
7
100
AcDbSpline
 70
8
 71
3
 72
8
 73
4
 74
0
 40
0
 40
0
 40
0
 40
0
 40
1
 40
1
 40
1
 40
1
 10
477.269880
 20
89.451560
 30
0.0
 10
477.269907
 20
88.788484
 30
0.0
 10
477.006512
 20
88.152558
 30
0.0
 10
476.537647
 20
87.683693
 30
0.0
  0
SPLINE
  5
120
100
AcDbEntity
  8
Layer_1
 62
7
100
AcDbSpline
 70
8
 71
3
 72
8
 73
4
 74
0
 40
0
 40
0
 40
0
 40
0
 40
1
 40
1
 40
1
 40
1
 10
476.537647
 20
87.683693
 30
0.0
 10
476.068782
 20
87.214828
 30
0.0
 10
475.432856
 20
86.951433
 30
0.0
 10
474.769780
 20
86.951460
 30
0.0
  0
SPLINE
  5
121
100
AcDbEntity
  8
Layer_1
 62
7
100
AcDbSpline
 70
8
 71
3
 72
8
 73
4
 74
0
 40
0
 40
0
 40
0
 40
0
 40
1
 40
1
 40
1
 40
1
 10
474.769780
 20
86.951460
 30
0.0
 10
474.106702
 20
86.951431
 30
0.0
 10
473.470774
 20
87.214824
 30
0.0
 10
473.001907
 20
87.683690
 30
0.0
  0
SPLINE
  5
122
100
AcDbEntity
  8
Layer_1
 62
7
100
AcDbSpline
 70
8
 71
3
 72
8
 73
4
 74
0
 40
0
 40
0
 40
0
 40
0
 40
1
 40
1
 40
1
 40
1
 10
473.001907
 20
87.683690
 30
0.0
 10
472.533039
 20
88.152555
 30
0.0
 10
472.269643
 20
88.788482
 30
0.0
 10
472.269670
 20
89.451560
 30
0.0
  0
SPLINE
  5
123
100
AcDbEntity
  8
Layer_1
 62
7
100
AcDbSpline
 70
8
 71
3
 72
8
 73
4
 74
0
 40
0
 40
0
 40
0
 40
0
 40
1
 40
1
 40
1
 40
1
 10
472.269670
 20
89.451560
 30
0.0
 10
472.269896
 20
90.832155
 30
0.0
 10
473.389185
 20
91.951211
 30
0.0
 10
474.769780
 20
91.951150
 30
0.0
  0
LWPOLYLINE
  5
124
100
AcDbEntity
  8
Layer_1
 62
7
100
AcDbPolyline
 90
1
 70
1
 10
9.401800
 20
91.953150
 30
0.0
  0
SPLINE
  5
125
100
AcDbEntity
  8
Layer_1
 62
7
100
AcDbSpline
 70
8
 71
3
 72
8
 73
4
 74
0
 40
0
 40
0
 40
0
 40
0
 40
1
 40
1
 40
1
 40
1
 10
9.401800
 20
76.081320
 30
0.0
 10
10.782127
 20
76.081428
 30
0.0
 10
11.901211
 20
74.962577
 30
0.0
 10
11.901390
 20
73.582250
 30
0.0
  0
SPLINE
  5
126
100
AcDbEntity
  8
Layer_1
 62
7
100
AcDbSpline
 70
8
 71
3
 72
8
 73
4
 74
0
 40
0
 40
0
 40
0
 40
0
 40
1
 40
1
 40
1
 40
1
 10
11.901390
 20
73.582250
 30
0.0
 10
11.901442
 20
72.919302
 30
0.0
 10
11.638110
 20
72.283491
 30
0.0
 10
11.169334
 20
71.814716
 30
0.0
  0
SPLINE
  5
127
100
AcDbEntity
  8
Layer_1
 62
7
100
AcDbSpline
 70
8
 71
3
 72
8
 73
4
 74
0
 40
0
 40
0
 40
0
 40
0
 40
1
 40
1
 40
1
 40
1
 10
11.169334
 20
71.814716
 30
0.0
 10
10.700559
 20
71.345940
 30
0.0
 10
10.064748
 20
71.082608
 30
0.0
 10
9.401800
 20
71.082660
 30
0.0
  0
SPLINE
  5
128
100
AcDbEntity
  8
Layer_1
 62
7
100
AcDbSpline
 70
8
 71
3
 72
8
 73
4
 74
0
 40
0
 40
0
 40
0
 40
0
 40
1
 40
1
 40
1
 40
1
 10
9.401800
 20
71.082660
 30
0.0
 10
8.738852
 20
71.082608
 30
0.0
 10
8.103041
 20
71.345940
 30
0.0
 10
7.634266
 20
71.814716
 30
0.0
  0
SPLINE
  5
129
100
AcDbEntity
  8
Layer_1
 62
7
100
AcDbSpline
 70
8
 71
3
 72
8
 73
4
 74
0
 40
0
 40
0
 40
0
 40
0
 40
1
 40
1
 40
1
 40
1
 10
7.634266
 20
71.814716
 30
0.0
 10
7.165490
 20
72.283491
 30
0.0
 10
6.902158
 20
72.919302
 30
0.0
 10
6.902210
 20
73.582250
 30
0.0
  0
SPLINE
  5
12a
100
AcDbEntity
  8
Layer_1
 62
7
100
AcDbSpline
 70
8
 71
3
 72
8
 73
4
 74
0
 40
0
 40
0
 40
0
 40
0
 40
1
 40
1
 40
1
 40
1
 10
6.902210
 20
73.582250
 30
0.0
 10
6.902389
 20
74.962577
 30
0.0
 10
8.021473
 20
76.081428
 30
0.0
 10
9.401800
 20
76.081320
 30
0.0
  0
LWPOLYLINE
  5
12b
100
AcDbEntity
  8
Layer_1
 62
7
100
AcDbPolyline
 90
1
 70
1
 10
474.769780
 20
91.951150
 30
0.0
  0
SPLINE
  5
12c
100
AcDbEntity
  8
Layer_1
 62
7
100
AcDbSpline
 70
8
 71
3
 72
8
 73
4
 74
0
 40
0
 40
0
 40
0
 40
0
 40
1
 40
1
 40
1
 40
1
 10
474.769780
 20
76.076320
 30
0.0
 10
476.150371
 20
76.076375
 30
0.0
 10
477.269654
 20
74.957321
 30
0.0
 10
477.269880
 20
73.576730
 30
0.0
  0
SPLINE
  5
12d
100
AcDbEntity
  8
Layer_1
 62
7
100
AcDbSpline
 70
8
 71
3
 72
8
 73
4
 74
0
 40
0
 40
0
 40
0
 40
0
 40
1
 40
1
 40
1
 40
1
 10
477.269880
 20
73.576730
 30
0.0
 10
477.269907
 20
72.913654
 30
0.0
 10
477.006512
 20
72.277728
 30
0.0
 10
476.537647
 20
71.808863
 30
0.0
  0
SPLINE
  5
12e
100
AcDbEntity
  8
Layer_1
 62
7
100
AcDbSpline
 70
8
 71
3
 72
8
 73
4
 74
0
 40
0
 40
0
 40
0
 40
0
 40
1
 40
1
 40
1
 40
1
 10
476.537647
 20
71.808863
 30
0.0
 10
476.068782
 20
71.339998
 30
0.0
 10
475.432856
 20
71.076603
 30
0.0
 10
474.769780
 20
71.076630
 30
0.0
  0
SPLINE
  5
12f
100
AcDbEntity
  8
Layer_1
 62
7
100
AcDbSpline
 70
8
 71
3
 72
8
 73
4
 74
0
 40
0
 40
0
 40
0
 40
0
 40
1
 40
1
 40
1
 40
1
 10
474.769780
 20
71.076630
 30
0.0
 10
474.106702
 20
71.076601
 30
0.0
 10
473.470774
 20
71.339994
 30
0.0
 10
473.001907
 20
71.808860
 30
0.0
  0
SPLINE
  5
130
100
AcDbEntity
  8
Layer_1
 62
7
100
AcDbSpline
 70
8
 71
3
 72
8
 73
4
 74
0
 40
0
 40
0
 40
0
 40
0
 40
1
 40
1
 40
1
 40
1
 10
473.001907
 20
71.808860
 30
0.0
 10
472.533039
 20
72.277725
 30
0.0
 10
472.269643
 20
72.913652
 30
0.0
 10
472.269670
 20
73.576730
 30
0.0
  0
SPLINE
  5
131
100
AcDbEntity
  8
Layer_1
 62
7
100
AcDbSpline
 70
8
 71
3
 72
8
 73
4
 74
0
 40
0
 40
0
 40
0
 40
0
 40
1
 40
1
 40
1
 40
1
 10
472.269670
 20
73.576730
 30
0.0
 10
472.269896
 20
74.957325
 30
0.0
 10
473.389185
 20
76.076381
 30
0.0
 10
474.769780
 20
76.076320
 30
0.0
  0
LWPOLYLINE
  5
132
100
AcDbEntity
  8
Layer_1
 62
7
100
AcDbPolyline
 90
1
 70
1
 10
9.401800
 20
76.081320
 30
0.0
  0
SPLINE
  5
133
100
AcDbEntity
  8
Layer_1
 62
7
100
AcDbSpline
 70
8
 71
3
 72
8
 73
4
 74
0
 40
0
 40
0
 40
0
 40
0
 40
1
 40
1
 40
1
 40
1
 10
9.401800
 20
60.210620
 30
0.0
 10
10.064747
 20
60.210672
 30
0.0
 10
10.700556
 20
59.947341
 30
0.0
 10
11.169331
 20
59.478568
 30
0.0
  0
SPLINE
  5
134
100
AcDbEntity
  8
Layer_1
 62
7
100
AcDbSpline
 70
8
 71
3
 72
8
 73
4
 74
0
 40
0
 40
0
 40
0
 40
0
 40
1
 40
1
 40
1
 40
1
 10
11.169331
 20
59.478568
 30
0.0
 10
11.638106
 20
59.009795
 30
0.0
 10
11.901439
 20
58.373987
 30
0.0
 10
11.901390
 20
57.711040
 30
0.0
  0
SPLINE
  5
135
100
AcDbEntity
  8
Layer_1
 62
7
100
AcDbSpline
 70
8
 71
3
 72
8
 73
4
 74
0
 40
0
 40
0
 40
0
 40
0
 40
1
 40
1
 40
1
 40
1
 10
11.901390
 20
57.711040
 30
0.0
 10
11.901216
 20
56.330709
 30
0.0
 10
10.782131
 20
55.211852
 30
0.0
 10
9.401800
 20
55.211960
 30
0.0
  0
SPLINE
  5
136
100
AcDbEntity
  8
Layer_1
 62
7
100
AcDbSpline
 70
8
 71
3
 72
8
 73
4
 74
0
 40
0
 40
0
 40
0
 40
0
 40
1
 40
1
 40
1
 40
1
 10
9.401800
 20
55.211960
 30
0.0
 10
8.021469
 20
55.211852
 30
0.0
 10
6.902384
 20
56.330709
 30
0.0
 10
6.902210
 20
57.711040
 30
0.0
  0
SPLINE
  5
137
100
AcDbEntity
  8
Layer_1
 62
7
100
AcDbSpline
 70
8
 71
3
 72
8
 73
4
 74
0
 40
0
 40
0
 40
0
 40
0
 40
1
 40
1
 40
1
 40
1
 10
6.902210
 20
57.711040
 30
0.0
 10
6.902161
 20
58.373987
 30
0.0
 10
7.165494
 20
59.009795
 30
0.0
 10
7.634269
 20
59.478568
 30
0.0
  0
SPLINE
  5
138
100
AcDbEntity
  8
Layer_1
 62
7
100
AcDbSpline
 70
8
 71
3
 72
8
 73
4
 74
0
 40
0
 40
0
 40
0
 40
0
 40
1
 40
1
 40
1
 40
1
 10
7.634269
 20
59.478568
 30
0.0
 10
8.103044
 20
59.947341
 30
0.0
 10
8.738853
 20
60.210672
 30
0.0
 10
9.401800
 20
60.210620
 30
0.0
  0
LWPOLYLINE
  5
139
100
AcDbEntity
  8
Layer_1
 62
7
100
AcDbPolyline
 90
1
 70
1
 10
474.769780
 20
76.076320
 30
0.0
  0
SPLINE
  5
13a
100
AcDbEntity
  8
Layer_1
 62
7
100
AcDbSpline
 70
8
 71
3
 72
8
 73
4
 74
0
 40
0
 40
0
 40
0
 40
0
 40
1
 40
1
 40
1
 40
1
 10
474.769780
 20
60.201620
 30
0.0
 10
476.150371
 20
60.201675
 30
0.0
 10
477.269654
 20
59.082621
 30
0.0
 10
477.269880
 20
57.702030
 30
0.0
  0
SPLINE
  5
13b
100
AcDbEntity
  8
Layer_1
 62
7
100
AcDbSpline
 70
8
 71
3
 72
8
 73
4
 74
0
 40
0
 40
0
 40
0
 40
0
 40
1
 40
1
 40
1
 40
1
 10
477.269880
 20
57.702030
 30
0.0
 10
477.269907
 20
57.038954
 30
0.0
 10
477.006512
 20
56.403028
 30
0.0
 10
476.537647
 20
55.934163
 30
0.0
  0
SPLINE
  5
13c
100
AcDbEntity
  8
Layer_1
 62
7
100
AcDbSpline
 70
8
 71
3
 72
8
 73
4
 74
0
 40
0
 40
0
 40
0
 40
0
 40
1
 40
1
 40
1
 40
1
 10
476.537647
 20
55.934163
 30
0.0
 10
476.068782
 20
55.465298
 30
0.0
 10
475.432856
 20
55.201903
 30
0.0
 10
474.769780
 20
55.201930
 30
0.0
  0
SPLINE
  5
13d
100
AcDbEntity
  8
Layer_1
 62
7
100
AcDbSpline
 70
8
 71
3
 72
8
 73
4
 74
0
 40
0
 40
0
 40
0
 40
0
 40
1
 40
1
 40
1
 40
1
 10
474.769780
 20
55.201930
 30
0.0
 10
474.106702
 20
55.201901
 30
0.0
 10
473.470774
 20
55.465294
 30
0.0
 10
473.001907
 20
55.934160
 30
0.0
  0
SPLINE
  5
13e
100
AcDbEntity
  8
Layer_1
 62
7
100
AcDbSpline
 70
8
 71
3
 72
8
 73
4
 74
0
 40
0
 40
0
 40
0
 40
0
 40
1
 40
1
 40
1
 40
1
 10
473.001907
 20
55.934160
 30
0.0
 10
472.533039
 20
56.403025
 30
0.0
 10
472.269643
 20
57.038952
 30
0.0
 10
472.269670
 20
57.702030
 30
0.0
  0
SPLINE
  5
13f
100
AcDbEntity
  8
Layer_1
 62
7
100
AcDbSpline
 70
8
 71
3
 72
8
 73
4
 74
0
 40
0
 40
0
 40
0
 40
0
 40
1
 40
1
 40
1
 40
1
 10
472.269670
 20
57.702030
 30
0.0
 10
472.269896
 20
59.082625
 30
0.0
 10
473.389185
 20
60.201681
 30
0.0
 10
474.769780
 20
60.201620
 30
0.0
  0
LWPOLYLINE
  5
140
100
AcDbEntity
  8
Layer_1
 62
7
100
AcDbPolyline
 90
1
 70
1
 10
9.401800
 20
60.210620
 30
0.0
  0
LWPOLYLINE
  5
141
100
AcDbEntity
  8
Layer_1
 62
7
100
AcDbPolyline
 90
1
 70
1
 10
474.769780
 20
60.201620
 30
0.0
  0
ENDSEC
  0
SECTION
  2
OBJECTS
  0
DICTIONARY
  5
C
330
0
100
AcDbDictionary
  3
ACAD_GROUP
350
D
  3
ACAD_MLINESTYLE
350
17
  0
DICTIONARY
  5
D
330
C
100
AcDbDictionary
  0
DICTIONARY
  5
1A
330
C
100
AcDbDictionary
  0
DICTIONARY
  5
17
330
C
100
AcDbDictionary
  3
STANDARD
350
18
  0
DICTIONARY
  5
19
330
C
100
AcDbDictionary
  0
ENDSEC
  0
EOF
