  0
SECTION
  2
HEADER
  9
$ACADVER
  1
AC1014
  9
$HANDSEED
  5
FFFF
  9
$INSUNITS
 70
     4
  9
$MEASUREMENT
 70
     1
  0
ENDSEC
  0
SECTION
  2
TABLES
  0
TABLE
  2
VPORT
  5
8
330
0
100
AcDbSymbolTable
 70
     4
  0
VPORT
  5
2E
330
8
100
AcDbSymbolTableRecord
100
AcDbViewportTableRecord
  2
*ACTIVE
 70
     0
 10
0.0
 20
0.0
 11
1.0
 21
1.0
 12
210.0
 22
148.5
 13
0.0
 23
0.0
 14
10.0
 24
10.0
 15
10.0
 25
10.0
 16
0.0
 26
0.0
 36
1.0
 17
0.0
 27
0.0
 37
0.0
 40
341.0
 41
1.24
 42
50.0
 43
0.0
 44
0.0
 50
0.0
 51
0.0
 71
     0
 72
   100
 73
     1
 74
     3
 75
     0
 76
     0
 77
     0
 78
     0
  0
ENDTAB
  0
TABLE
  2
LTYPE
  5
5
330
0
100
AcDbSymbolTable
 70
     1
  0
LTYPE
  5
14
330
5
100
AcDbSymbolTableRecord
100
AcDbLinetypeTableRecord
  2
BYBLOCK
 70
     0
  3

 72
    65
 73
     0
 40
0.0
  0
LTYPE
  5
15
330
5
100
AcDbSymbolTableRecord
100
AcDbLinetypeTableRecord
  2
BYLAYER
 70
     0
  3

 72
    65
 73
     0
 40
0.0
  0
LTYPE
  5
16
330
5
100
AcDbSymbolTableRecord
100
AcDbLinetypeTableRecord
  2
CONTINUOUS
 70
     0
  3
Solid line
 72
    65
 73
     0
 40
0.0
  0
ENDTAB
  0
TABLE
  2
LAYER
  5
2
100
AcDbSymbolTable
 70
2
  0
LAYER
  5
50
100
AcDbSymbolTableRecord
100
AcDbLayerTableRecord
  2
0
 70
0
  6
CONTINUOUS
  0
LAYER
  5
51
100
AcDbSymbolTableRecord
100
AcDbLayerTableRecord
  2
Layer_1
 70
0
  6
CONTINUOUS
  0
ENDTAB
  0
TABLE
  2
STYLE
  5
3
330
0
100
AcDbSymbolTable
 70
     1
  0
STYLE
  5
11
330
3
100
AcDbSymbolTableRecord
100
AcDbTextStyleTableRecord
  2
STANDARD
 70
     0
 40
0.0
 41
1.0
 50
0.0
 71
     0
 42
2.5
  3
txt
  4

  0
ENDTAB
  0
TABLE
  2
VIEW
  5
6
330
0
100
AcDbSymbolTable
 70
     0
  0
ENDTAB
  0
TABLE
  2
UCS
  5
7
330
0
100
AcDbSymbolTable
 70
     0
  0
ENDTAB
  0
TABLE
  2
APPID
  5
9
330
0
100
AcDbSymbolTable
 70
     2
  0
APPID
  5
12
330
9
100
AcDbSymbolTableRecord
100
AcDbRegAppTableRecord
  2
ACAD
 70
     0
  0
ENDTAB
  0
TABLE
  2
DIMSTYLE
  5
A
330
0
100
AcDbSymbolTable
 70
     1
  0
DIMSTYLE
105
27
330
A
100
AcDbSymbolTableRecord
100
AcDbDimStyleTableRecord
  2
ISO-25
 70
     0
  3

  4

  5

  6

  7

 40
1.0
 41
2.5
 42
0.625
 43
3.75
 44
1.25
 45
0.0
 46
0.0
 47
0.0
 48
0.0
140
2.5
141
2.5
142
0.0
143
0.03937007874016
144
1.0
145
0.0
146
1.0
147
0.625
 71
     0
 72
     0
 73
     0
 74
     0
 75
     0
 76
     0
 77
     1
 78
     8
170
     0
171
     3
172
     1
173
     0
174
     0
175
     0
176
     0
177
     0
178
     0
270
     2
271
     2
272
     2
273
     2
274
     3
340
11
275
     0
280
     0
281
     0
282
     0
283
     0
284
     8
285
     0
286
     0
287
     3
288
     0
  0
ENDTAB
  0
TABLE
  2
BLOCK_RECORD
  5
1
330
0
100
AcDbSymbolTable
 70
     1
  0
BLOCK_RECORD
  5
1F
330
1
100
AcDbSymbolTableRecord
100
AcDbBlockTableRecord
  2
*MODEL_SPACE
  0
BLOCK_RECORD
  5
1B
330
1
100
AcDbSymbolTableRecord
100
AcDbBlockTableRecord
  2
*PAPER_SPACE
  0
ENDTAB
  0
ENDSEC
  0
SECTION
  2
BLOCKS
  0
BLOCK
  5
20
330
1F
100
AcDbEntity
  8
0
100
AcDbBlockBegin
  2
*MODEL_SPACE
 70
     0
 10
0.0
 20
0.0
 30
0.0
  3
*MODEL_SPACE
  1

  0
ENDBLK
  5
21
330
1F
100
AcDbEntity
  8
0
100
AcDbBlockEnd
  0
BLOCK
  5
1C
330
1B
100
AcDbEntity
 67
     1
  8
0
100
AcDbBlockBegin
  2
*PAPER_SPACE
  1

  0
ENDBLK
  5
1D
330
1B
100
AcDbEntity
 67
     1
  8
0
100
AcDbBlockEnd
  0
ENDSEC
  0
SECTION
  2
ENTITIES
  0
SPLINE
  5
100
100
AcDbEntity
  8
Layer_1
 62
7
100
AcDbSpline
 70
8
 71
3
 72
8
 73
4
 74
0
 40
0
 40
0
 40
0
 40
0
 40
1
 40
1
 40
1
 40
1
 10
18.069149
 20
100.000048
 30
0.0
 10
17.699855
 20
100.000048
 30
0.0
 10
17.402523
 20
99.702725
 30
0.0
 10
17.402523
 20
99.333422
 30
0.0
  0
SPLINE
  5
101
100
AcDbEntity
  8
Layer_1
 62
7
100
AcDbSpline
 70
8
 71
3
 72
8
 73
4
 74
0
 40
0
 40
0
 40
0
 40
0
 40
1
 40
1
 40
1
 40
1
 10
17.402523
 20
95.666460
 30
0.0
 10
17.402523
 20
95.297160
 30
0.0
 10
17.699855
 20
94.999840
 30
0.0
 10
18.069149
 20
94.999840
 30
0.0
  0
LWPOLYLINE
  5
102
100
AcDbEntity
  8
Layer_1
 62
7
100
AcDbPolyline
 90
2
 70
0
 10
17.402523
 20
99.333422
 30
0.0
 10
17.402523
 20
95.666460
 30
0.0
  0
SPLINE
  5
103
100
AcDbEntity
  8
Layer_1
 62
7
100
AcDbSpline
 70
8
 71
3
 72
8
 73
4
 74
0
 40
0
 40
0
 40
0
 40
0
 40
1
 40
1
 40
1
 40
1
 10
1.262423
 20
94.999840
 30
0.0
 10
0.563017
 20
94.999840
 30
0.0
 10
-0.000032
 20
94.436800
 30
0.0
 10
-0.000032
 20
93.737380
 30
0.0
  0
LWPOLYLINE
  5
104
100
AcDbEntity
  8
Layer_1
 62
7
100
AcDbPolyline
 90
2
 70
0
 10
18.069149
 20
94.999840
 30
0.0
 10
1.262423
 20
94.999840
 30
0.0
  0
SPLINE
  5
105
100
AcDbEntity
  8
Layer_1
 62
7
100
AcDbSpline
 70
8
 71
3
 72
8
 73
4
 74
0
 40
0
 40
0
 40
0
 40
0
 40
1
 40
1
 40
1
 40
1
 10
-0.000032
 20
54.352710
 30
0.0
 10
-0.000032
 20
53.653290
 30
0.0
 10
0.563017
 20
53.090250
 30
0.0
 10
1.262423
 20
53.090250
 30
0.0
  0
LWPOLYLINE
  5
106
100
AcDbEntity
  8
Layer_1
 62
7
100
AcDbPolyline
 90
7
 70
0
 10
-0.000032
 20
93.737380
 30
0.0
 10
-0.000032
 20
90.954090
 30
0.0
 10
1.457760
 20
90.204260
 30
0.0
 10
2.915036
 20
89.453920
 30
0.0
 10
1.457760
 20
88.704100
 30
0.0
 10
-0.000032
 20
87.954270
 30
0.0
 10
-0.000032
 20
54.352710
 30
0.0
  0
SPLINE
  5
107
100
AcDbEntity
  8
Layer_1
 62
7
100
AcDbSpline
 70
8
 71
3
 72
8
 73
4
 74
0
 40
0
 40
0
 40
0
 40
0
 40
1
 40
1
 40
1
 40
1
 10
18.069149
 20
53.090250
 30
0.0
 10
17.699854
 20
53.090250
 30
0.0
 10
17.402523
 20
52.792930
 30
0.0
 10
17.402523
 20
52.423620
 30
0.0
  0
LWPOLYLINE
  5
108
100
AcDbEntity
  8
Layer_1
 62
7
100
AcDbPolyline
 90
2
 70
0
 10
1.262423
 20
53.090250
 30
0.0
 10
18.069149
 20
53.090250
 30
0.0
  0
SPLINE
  5
109
100
AcDbEntity
  8
Layer_1
 62
7
100
AcDbSpline
 70
8
 71
3
 72
8
 73
4
 74
0
 40
0
 40
0
 40
0
 40
0
 40
1
 40
1
 40
1
 40
1
 10
17.402523
 20
48.756660
 30
0.0
 10
17.402523
 20
48.387360
 30
0.0
 10
17.699854
 20
48.090040
 30
0.0
 10
18.069149
 20
48.090040
 30
0.0
  0
LWPOLYLINE
  5
10a
100
AcDbEntity
  8
Layer_1
 62
7
100
AcDbPolyline
 90
2
 70
0
 10
17.402523
 20
52.423620
 30
0.0
 10
17.402523
 20
48.756660
 30
0.0
  0
SPLINE
  5
10b
100
AcDbEntity
  8
Layer_1
 62
7
100
AcDbSpline
 70
8
 71
3
 72
8
 73
4
 74
0
 40
0
 40
0
 40
0
 40
0
 40
1
 40
1
 40
1
 40
1
 10
319.736010
 20
48.090040
 30
0.0
 10
320.105310
 20
48.090040
 30
0.0
 10
320.402630
 20
48.387360
 30
0.0
 10
320.402630
 20
48.756660
 30
0.0
  0
LWPOLYLINE
  5
10c
100
AcDbEntity
  8
Layer_1
 62
7
100
AcDbPolyline
 90
2
 70
0
 10
18.069149
 20
48.090040
 30
0.0
 10
319.736010
 20
48.090040
 30
0.0
  0
SPLINE
  5
10d
100
AcDbEntity
  8
Layer_1
 62
7
100
AcDbSpline
 70
8
 71
3
 72
8
 73
4
 74
0
 40
0
 40
0
 40
0
 40
0
 40
1
 40
1
 40
1
 40
1
 10
320.402630
 20
52.423620
 30
0.0
 10
320.402630
 20
52.792930
 30
0.0
 10
320.105310
 20
53.090250
 30
0.0
 10
319.736010
 20
53.090250
 30
0.0
  0
LWPOLYLINE
  5
10e
100
AcDbEntity
  8
Layer_1
 62
7
100
AcDbPolyline
 90
2
 70
0
 10
320.402630
 20
48.756660
 30
0.0
 10
320.402630
 20
52.423620
 30
0.0
  0
SPLINE
  5
10f
100
AcDbEntity
  8
Layer_1
 62
7
100
AcDbSpline
 70
8
 71
3
 72
8
 73
4
 74
0
 40
0
 40
0
 40
0
 40
0
 40
1
 40
1
 40
1
 40
1
 10
336.542220
 20
53.090250
 30
0.0
 10
337.241630
 20
53.090250
 30
0.0
 10
337.805190
 20
53.653290
 30
0.0
 10
337.805190
 20
54.352710
 30
0.0
  0
LWPOLYLINE
  5
110
100
AcDbEntity
  8
Layer_1
 62
7
100
AcDbPolyline
 90
2
 70
0
 10
319.736010
 20
53.090250
 30
0.0
 10
336.542220
 20
53.090250
 30
0.0
  0
SPLINE
  5
111
100
AcDbEntity
  8
Layer_1
 62
7
100
AcDbSpline
 70
8
 71
3
 72
8
 73
4
 74
0
 40
0
 40
0
 40
0
 40
0
 40
1
 40
1
 40
1
 40
1
 10
337.805190
 20
93.737380
 30
0.0
 10
337.805190
 20
94.436800
 30
0.0
 10
337.241630
 20
94.999840
 30
0.0
 10
336.542220
 20
94.999840
 30
0.0
  0
LWPOLYLINE
  5
112
100
AcDbEntity
  8
Layer_1
 62
7
100
AcDbPolyline
 90
7
 70
0
 10
337.805190
 20
54.352710
 30
0.0
 10
337.805190
 20
87.952200
 30
0.0
 10
336.347400
 20
88.702030
 30
0.0
 10
334.890120
 20
89.452370
 30
0.0
 10
336.347400
 20
90.202200
 30
0.0
 10
337.805190
 20
90.952020
 30
0.0
 10
337.805190
 20
93.737380
 30
0.0
  0
SPLINE
  5
113
100
AcDbEntity
  8
Layer_1
 62
7
100
AcDbSpline
 70
8
 71
3
 72
8
 73
4
 74
0
 40
0
 40
0
 40
0
 40
0
 40
1
 40
1
 40
1
 40
1
 10
319.736010
 20
94.999840
 30
0.0
 10
320.105310
 20
94.999840
 30
0.0
 10
320.402630
 20
95.297160
 30
0.0
 10
320.402630
 20
95.666460
 30
0.0
  0
LWPOLYLINE
  5
114
100
AcDbEntity
  8
Layer_1
 62
7
100
AcDbPolyline
 90
2
 70
0
 10
336.542220
 20
94.999840
 30
0.0
 10
319.736010
 20
94.999840
 30
0.0
  0
SPLINE
  5
115
100
AcDbEntity
  8
Layer_1
 62
7
100
AcDbSpline
 70
8
 71
3
 72
8
 73
4
 74
0
 40
0
 40
0
 40
0
 40
0
 40
1
 40
1
 40
1
 40
1
 10
320.402630
 20
99.333422
 30
0.0
 10
320.402630
 20
99.702725
 30
0.0
 10
320.105310
 20
100.000048
 30
0.0
 10
319.736010
 20
100.000048
 30
0.0
  0
LWPOLYLINE
  5
116
100
AcDbEntity
  8
Layer_1
 62
7
100
AcDbPolyline
 90
2
 70
0
 10
320.402630
 20
95.666460
 30
0.0
 10
320.402630
 20
99.333422
 30
0.0
  0
SPLINE
  5
117
100
AcDbEntity
  8
Layer_1
 62
7
100
AcDbSpline
 70
8
 71
3
 72
8
 73
4
 74
0
 40
0
 40
0
 40
0
 40
0
 40
1
 40
1
 40
1
 40
1
 10
9.401461
 20
91.953510
 30
0.0
 10
10.045636
 20
91.953552
 30
0.0
 10
10.663438
 20
91.690216
 30
0.0
 10
11.118935
 20
91.221442
 30
0.0
  0
SPLINE
  5
118
100
AcDbEntity
  8
Layer_1
 62
7
100
AcDbSpline
 70
8
 71
3
 72
8
 73
4
 74
0
 40
0
 40
0
 40
0
 40
0
 40
1
 40
1
 40
1
 40
1
 10
11.118935
 20
91.221442
 30
0.0
 10
11.574432
 20
90.752667
 30
0.0
 10
11.830304
 20
90.116862
 30
0.0
 10
11.830254
 20
89.453920
 30
0.0
  0
SPLINE
  5
119
100
AcDbEntity
  8
Layer_1
 62
7
100
AcDbSpline
 70
8
 71
3
 72
8
 73
4
 74
0
 40
0
 40
0
 40
0
 40
0
 40
1
 40
1
 40
1
 40
1
 10
11.830254
 20
89.453920
 30
0.0
 10
11.830080
 20
88.073607
 30
0.0
 10
10.742698
 20
86.954762
 30
0.0
 10
9.401461
 20
86.954850
 30
0.0
  0
SPLINE
  5
11a
100
AcDbEntity
  8
Layer_1
 62
7
100
AcDbSpline
 70
8
 71
3
 72
8
 73
4
 74
0
 40
0
 40
0
 40
0
 40
0
 40
1
 40
1
 40
1
 40
1
 10
9.401461
 20
86.954850
 30
0.0
 10
8.060224
 20
86.954763
 30
0.0
 10
6.972843
 20
88.073607
 30
0.0
 10
6.972669
 20
89.453920
 30
0.0
  0
SPLINE
  5
11b
100
AcDbEntity
  8
Layer_1
 62
7
100
AcDbSpline
 70
8
 71
3
 72
8
 73
4
 74
0
 40
0
 40
0
 40
0
 40
0
 40
1
 40
1
 40
1
 40
1
 10
6.972669
 20
89.453920
 30
0.0
 10
6.972619
 20
90.116862
 30
0.0
 10
7.228491
 20
90.752667
 30
0.0
 10
7.683988
 20
91.221441
 30
0.0
  0
SPLINE
  5
11c
100
AcDbEntity
  8
Layer_1
 62
7
100
AcDbSpline
 70
8
 71
3
 72
8
 73
4
 74
0
 40
0
 40
0
 40
0
 40
0
 40
1
 40
1
 40
1
 40
1
 10
7.683988
 20
91.221441
 30
0.0
 10
8.139485
 20
91.690215
 30
0.0
 10
8.757287
 20
91.953552
 30
0.0
 10
9.401461
 20
91.953510
 30
0.0
  0
LWPOLYLINE
  5
11d
100
AcDbEntity
  8
Layer_1
 62
7
100
AcDbPolyline
 90
3
 70
0
 10
319.736010
 20
100.000048
 30
0.0
 10
18.069149
 20
100.000048
 30
0.0
 10
18.069149
 20
100.000048
 30
0.0
  0
SPLINE
  5
11e
100
AcDbEntity
  8
Layer_1
 62
7
100
AcDbSpline
 70
8
 71
3
 72
8
 73
4
 74
0
 40
0
 40
0
 40
0
 40
0
 40
1
 40
1
 40
1
 40
1
 10
328.403180
 20
91.951960
 30
0.0
 10
329.744479
 20
91.951712
 30
0.0
 10
330.831750
 20
90.832746
 30
0.0
 10
330.831970
 20
89.452370
 30
0.0
  0
SPLINE
  5
11f
100
AcDbEntity
  8
Layer_1
 62
7
100
AcDbSpline
 70
8
 71
3
 72
8
 73
4
 74
0
 40
0
 40
0
 40
0
 40
0
 40
1
 40
1
 40
1
 40
1
 10
330.831970
 20
89.452370
 30
0.0
 10
330.832024
 20
88.071795
 30
0.0
 10
329.744672
 20
86.952518
 30
0.0
 10
328.403180
 20
86.952270
 30
0.0
  0
SPLINE
  5
120
100
AcDbEntity
  8
Layer_1
 62
7
100
AcDbSpline
 70
8
 71
3
 72
8
 73
4
 74
0
 40
0
 40
0
 40
0
 40
0
 40
1
 40
1
 40
1
 40
1
 10
328.403180
 20
86.952270
 30
0.0
 10
327.758878
 20
86.952247
 30
0.0
 10
327.140958
 20
87.215643
 30
0.0
 10
326.685369
 20
87.684508
 30
0.0
  0
SPLINE
  5
121
100
AcDbEntity
  8
Layer_1
 62
7
100
AcDbSpline
 70
8
 71
3
 72
8
 73
4
 74
0
 40
0
 40
0
 40
0
 40
0
 40
1
 40
1
 40
1
 40
1
 10
326.685369
 20
87.684508
 30
0.0
 10
326.229780
 20
88.153373
 30
0.0
 10
325.973844
 20
88.789297
 30
0.0
 10
325.973870
 20
89.452370
 30
0.0
  0
SPLINE
  5
122
100
AcDbEntity
  8
Layer_1
 62
7
100
AcDbSpline
 70
8
 71
3
 72
8
 73
4
 74
0
 40
0
 40
0
 40
0
 40
0
 40
1
 40
1
 40
1
 40
1
 10
325.973870
 20
89.452370
 30
0.0
 10
325.974090
 20
90.832955
 30
0.0
 10
327.061678
 20
91.952007
 30
0.0
 10
328.403180
 20
91.951960
 30
0.0
  0
LWPOLYLINE
  5
123
100
AcDbEntity
  8
Layer_1
 62
7
100
AcDbPolyline
 90
1
 70
1
 10
9.401461
 20
91.953510
 30
0.0
  0
SPLINE
  5
124
100
AcDbEntity
  8
Layer_1
 62
7
100
AcDbSpline
 70
8
 71
3
 72
8
 73
4
 74
0
 40
0
 40
0
 40
0
 40
0
 40
1
 40
1
 40
1
 40
1
 10
9.401461
 20
76.082130
 30
0.0
 10
10.742698
 20
76.082218
 30
0.0
 10
11.830080
 20
74.963373
 30
0.0
 10
11.830254
 20
73.583060
 30
0.0
  0
SPLINE
  5
125
100
AcDbEntity
  8
Layer_1
 62
7
100
AcDbSpline
 70
8
 71
3
 72
8
 73
4
 74
0
 40
0
 40
0
 40
0
 40
0
 40
1
 40
1
 40
1
 40
1
 10
11.830254
 20
73.583060
 30
0.0
 10
11.830304
 20
72.920118
 30
0.0
 10
11.574432
 20
72.284313
 30
0.0
 10
11.118935
 20
71.815538
 30
0.0
  0
SPLINE
  5
126
100
AcDbEntity
  8
Layer_1
 62
7
100
AcDbSpline
 70
8
 71
3
 72
8
 73
4
 74
0
 40
0
 40
0
 40
0
 40
0
 40
1
 40
1
 40
1
 40
1
 10
11.118935
 20
71.815538
 30
0.0
 10
10.663438
 20
71.346764
 30
0.0
 10
10.045636
 20
71.083428
 30
0.0
 10
9.401461
 20
71.083470
 30
0.0
  0
SPLINE
  5
127
100
AcDbEntity
  8
Layer_1
 62
7
100
AcDbSpline
 70
8
 71
3
 72
8
 73
4
 74
0
 40
0
 40
0
 40
0
 40
0
 40
1
 40
1
 40
1
 40
1
 10
9.401461
 20
71.083470
 30
0.0
 10
8.757287
 20
71.083428
 30
0.0
 10
8.139485
 20
71.346765
 30
0.0
 10
7.683988
 20
71.815539
 30
0.0
  0
SPLINE
  5
128
100
AcDbEntity
  8
Layer_1
 62
7
100
AcDbSpline
 70
8
 71
3
 72
8
 73
4
 74
0
 40
0
 40
0
 40
0
 40
0
 40
1
 40
1
 40
1
 40
1
 10
7.683988
 20
71.815539
 30
0.0
 10
7.228491
 20
72.284313
 30
0.0
 10
6.972619
 20
72.920118
 30
0.0
 10
6.972669
 20
73.583060
 30
0.0
  0
SPLINE
  5
129
100
AcDbEntity
  8
Layer_1
 62
7
100
AcDbSpline
 70
8
 71
3
 72
8
 73
4
 74
0
 40
0
 40
0
 40
0
 40
0
 40
1
 40
1
 40
1
 40
1
 10
6.972669
 20
73.583060
 30
0.0
 10
6.972843
 20
74.963373
 30
0.0
 10
8.060224
 20
76.082217
 30
0.0
 10
9.401461
 20
76.082130
 30
0.0
  0
LWPOLYLINE
  5
12a
100
AcDbEntity
  8
Layer_1
 62
7
100
AcDbPolyline
 90
1
 70
1
 10
328.403180
 20
91.951960
 30
0.0
  0
SPLINE
  5
12b
100
AcDbEntity
  8
Layer_1
 62
7
100
AcDbSpline
 70
8
 71
3
 72
8
 73
4
 74
0
 40
0
 40
0
 40
0
 40
0
 40
1
 40
1
 40
1
 40
1
 10
328.403180
 20
76.076960
 30
0.0
 10
329.744479
 20
76.076712
 30
0.0
 10
330.831750
 20
74.957746
 30
0.0
 10
330.831970
 20
73.577370
 30
0.0
  0
SPLINE
  5
12c
100
AcDbEntity
  8
Layer_1
 62
7
100
AcDbSpline
 70
8
 71
3
 72
8
 73
4
 74
0
 40
0
 40
0
 40
0
 40
0
 40
1
 40
1
 40
1
 40
1
 10
330.831970
 20
73.577370
 30
0.0
 10
330.832024
 20
72.196795
 30
0.0
 10
329.744672
 20
71.077518
 30
0.0
 10
328.403180
 20
71.077270
 30
0.0
  0
SPLINE
  5
12d
100
AcDbEntity
  8
Layer_1
 62
7
100
AcDbSpline
 70
8
 71
3
 72
8
 73
4
 74
0
 40
0
 40
0
 40
0
 40
0
 40
1
 40
1
 40
1
 40
1
 10
328.403180
 20
71.077270
 30
0.0
 10
327.758878
 20
71.077247
 30
0.0
 10
327.140958
 20
71.340643
 30
0.0
 10
326.685369
 20
71.809508
 30
0.0
  0
SPLINE
  5
12e
100
AcDbEntity
  8
Layer_1
 62
7
100
AcDbSpline
 70
8
 71
3
 72
8
 73
4
 74
0
 40
0
 40
0
 40
0
 40
0
 40
1
 40
1
 40
1
 40
1
 10
326.685369
 20
71.809508
 30
0.0
 10
326.229780
 20
72.278373
 30
0.0
 10
325.973844
 20
72.914297
 30
0.0
 10
325.973870
 20
73.577370
 30
0.0
  0
SPLINE
  5
12f
100
AcDbEntity
  8
Layer_1
 62
7
100
AcDbSpline
 70
8
 71
3
 72
8
 73
4
 74
0
 40
0
 40
0
 40
0
 40
0
 40
1
 40
1
 40
1
 40
1
 10
325.973870
 20
73.577370
 30
0.0
 10
325.974090
 20
74.957955
 30
0.0
 10
327.061678
 20
76.077007
 30
0.0
 10
328.403180
 20
76.076960
 30
0.0
  0
LWPOLYLINE
  5
130
100
AcDbEntity
  8
Layer_1
 62
7
100
AcDbPolyline
 90
1
 70
1
 10
9.401461
 20
76.082130
 30
0.0
  0
SPLINE
  5
131
100
AcDbEntity
  8
Layer_1
 62
7
100
AcDbSpline
 70
8
 71
3
 72
8
 73
4
 74
0
 40
0
 40
0
 40
0
 40
0
 40
1
 40
1
 40
1
 40
1
 10
9.401461
 20
60.211260
 30
0.0
 10
10.045636
 20
60.211302
 30
0.0
 10
10.663438
 20
59.947966
 30
0.0
 10
11.118935
 20
59.479192
 30
0.0
  0
SPLINE
  5
132
100
AcDbEntity
  8
Layer_1
 62
7
100
AcDbSpline
 70
8
 71
3
 72
8
 73
4
 74
0
 40
0
 40
0
 40
0
 40
0
 40
1
 40
1
 40
1
 40
1
 10
11.118935
 20
59.479192
 30
0.0
 10
11.574432
 20
59.010417
 30
0.0
 10
11.830304
 20
58.374612
 30
0.0
 10
11.830254
 20
57.711670
 30
0.0
  0
SPLINE
  5
133
100
AcDbEntity
  8
Layer_1
 62
7
100
AcDbSpline
 70
8
 71
3
 72
8
 73
4
 74
0
 40
0
 40
0
 40
0
 40
0
 40
1
 40
1
 40
1
 40
1
 10
11.830254
 20
57.711670
 30
0.0
 10
11.830080
 20
56.331357
 30
0.0
 10
10.742698
 20
55.212512
 30
0.0
 10
9.401461
 20
55.212600
 30
0.0
  0
SPLINE
  5
134
100
AcDbEntity
  8
Layer_1
 62
7
100
AcDbSpline
 70
8
 71
3
 72
8
 73
4
 74
0
 40
0
 40
0
 40
0
 40
0
 40
1
 40
1
 40
1
 40
1
 10
9.401461
 20
55.212600
 30
0.0
 10
8.060224
 20
55.212513
 30
0.0
 10
6.972843
 20
56.331357
 30
0.0
 10
6.972669
 20
57.711670
 30
0.0
  0
SPLINE
  5
135
100
AcDbEntity
  8
Layer_1
 62
7
100
AcDbSpline
 70
8
 71
3
 72
8
 73
4
 74
0
 40
0
 40
0
 40
0
 40
0
 40
1
 40
1
 40
1
 40
1
 10
6.972669
 20
57.711670
 30
0.0
 10
6.972619
 20
58.374612
 30
0.0
 10
7.228491
 20
59.010417
 30
0.0
 10
7.683988
 20
59.479191
 30
0.0
  0
SPLINE
  5
136
100
AcDbEntity
  8
Layer_1
 62
7
100
AcDbSpline
 70
8
 71
3
 72
8
 73
4
 74
0
 40
0
 40
0
 40
0
 40
0
 40
1
 40
1
 40
1
 40
1
 10
7.683988
 20
59.479191
 30
0.0
 10
8.139485
 20
59.947965
 30
0.0
 10
8.757287
 20
60.211302
 30
0.0
 10
9.401461
 20
60.211260
 30
0.0
  0
LWPOLYLINE
  5
137
100
AcDbEntity
  8
Layer_1
 62
7
100
AcDbPolyline
 90
1
 70
1
 10
328.403180
 20
76.076960
 30
0.0
  0
SPLINE
  5
138
100
AcDbEntity
  8
Layer_1
 62
7
100
AcDbSpline
 70
8
 71
3
 72
8
 73
4
 74
0
 40
0
 40
0
 40
0
 40
0
 40
1
 40
1
 40
1
 40
1
 10
328.403180
 20
60.201960
 30
0.0
 10
329.744479
 20
60.201712
 30
0.0
 10
330.831750
 20
59.082746
 30
0.0
 10
330.831970
 20
57.702370
 30
0.0
  0
SPLINE
  5
139
100
AcDbEntity
  8
Layer_1
 62
7
100
AcDbSpline
 70
8
 71
3
 72
8
 73
4
 74
0
 40
0
 40
0
 40
0
 40
0
 40
1
 40
1
 40
1
 40
1
 10
330.831970
 20
57.702370
 30
0.0
 10
330.832024
 20
56.321795
 30
0.0
 10
329.744672
 20
55.202518
 30
0.0
 10
328.403180
 20
55.202270
 30
0.0
  0
SPLINE
  5
13a
100
AcDbEntity
  8
Layer_1
 62
7
100
AcDbSpline
 70
8
 71
3
 72
8
 73
4
 74
0
 40
0
 40
0
 40
0
 40
0
 40
1
 40
1
 40
1
 40
1
 10
328.403180
 20
55.202270
 30
0.0
 10
327.758878
 20
55.202247
 30
0.0
 10
327.140958
 20
55.465643
 30
0.0
 10
326.685369
 20
55.934508
 30
0.0
  0
SPLINE
  5
13b
100
AcDbEntity
  8
Layer_1
 62
7
100
AcDbSpline
 70
8
 71
3
 72
8
 73
4
 74
0
 40
0
 40
0
 40
0
 40
0
 40
1
 40
1
 40
1
 40
1
 10
326.685369
 20
55.934508
 30
0.0
 10
326.229780
 20
56.403373
 30
0.0
 10
325.973844
 20
57.039297
 30
0.0
 10
325.973870
 20
57.702370
 30
0.0
  0
SPLINE
  5
13c
100
AcDbEntity
  8
Layer_1
 62
7
100
AcDbSpline
 70
8
 71
3
 72
8
 73
4
 74
0
 40
0
 40
0
 40
0
 40
0
 40
1
 40
1
 40
1
 40
1
 10
325.973870
 20
57.702370
 30
0.0
 10
325.974090
 20
59.082955
 30
0.0
 10
327.061678
 20
60.202007
 30
0.0
 10
328.403180
 20
60.201960
 30
0.0
  0
LWPOLYLINE
  5
13d
100
AcDbEntity
  8
Layer_1
 62
7
100
AcDbPolyline
 90
1
 70
1
 10
9.401461
 20
60.211260
 30
0.0
  0
LWPOLYLINE
  5
13e
100
AcDbEntity
  8
Layer_1
 62
7
100
AcDbPolyline
 90
1
 70
1
 10
328.403180
 20
60.201960
 30
0.0
  0
ENDSEC
  0
SECTION
  2
OBJECTS
  0
DICTIONARY
  5
C
330
0
100
AcDbDictionary
  3
ACAD_GROUP
350
D
  3
ACAD_MLINESTYLE
350
17
  0
DICTIONARY
  5
D
330
C
100
AcDbDictionary
  0
DICTIONARY
  5
1A
330
C
100
AcDbDictionary
  0
DICTIONARY
  5
17
330
C
100
AcDbDictionary
  3
STANDARD
350
18
  0
DICTIONARY
  5
19
330
C
100
AcDbDictionary
  0
ENDSEC
  0
EOF
